<svg id="visual" viewBox="0 0 900 600" width="900" height="600" xmlns="http://www.w3.org/2000/svg" xmlns:xlink="http://www.w3.org/1999/xlink" version="1.1"><rect x="0" y="0" width="900" height="600" fill="#b9d9c5"></rect><defs><linearGradient id="grad1_0" x1="33.3%" y1="0%" x2="100%" y2="100%"><stop offset="20%" stop-color="#b9d9c5" stop-opacity="1"></stop><stop offset="80%" stop-color="#b9d9c5" stop-opacity="1"></stop></linearGradient></defs><defs><linearGradient id="grad2_0" x1="0%" y1="0%" x2="66.7%" y2="100%"><stop offset="20%" stop-color="#b9d9c5" stop-opacity="1"></stop><stop offset="80%" stop-color="#b9d9c5" stop-opacity="1"></stop></linearGradient></defs><g transform="translate(900, 0)"><path d="M0 243.4C-34.5 242.5 -69 241.7 -93.1 224.8C-117.2 208 -130.9 175.1 -151.3 151.3C-171.7 127.5 -198.8 112.9 -215.3 89.2C-231.7 65.5 -237.5 32.7 -243.4 0L0 0Z" fill="#e8f2ec"></path></g><g transform="translate(0, 600)"><path d="M0 -243.4C32.9 -240.3 65.7 -237.2 92.6 -223.6C119.5 -210 140.4 -185.8 163.3 -163.3C186.3 -140.9 211.2 -120.1 224.8 -93.1C238.5 -66.2 240.9 -33.1 243.4 0L0 0Z" fill="#e8f2ec"></path></g></svg>